<svg width="140" height="172" viewBox="0 0 140 172" fill="none" xmlns="http://www.w3.org/2000/svg">
<rect width="134" height="165.997" transform="translate(3 2.85645)" fill="#F8F9FA"/>
<path d="M120.582 3.5166C112.755 7.12547 105.31 11.5706 98.4186 16.7532" stroke="white" stroke-width="5" stroke-miterlimit="10" stroke-linecap="round" stroke-linejoin="round"/>
<path d="M107.184 45.3486C103.191 48.3342 99.3946 51.5851 95.8302 55.072" stroke="white" stroke-width="5" stroke-miterlimit="10" stroke-linecap="round" stroke-linejoin="round"/>
<path d="M137 66.001C130.69 70.1421 124.382 74.2833 118.072 78.426" stroke="white" stroke-width="5" stroke-miterlimit="10" stroke-linecap="round" stroke-linejoin="round"/>
<path d="M86.6914 83.4697C83.4656 88.9687 80.2383 94.4676 77.0125 99.968" stroke="white" stroke-width="5" stroke-miterlimit="10" stroke-linecap="round" stroke-linejoin="round"/>
<path d="M65.6875 52.1064C61.2628 55.1645 57.5461 59.2455 54.9097 63.939" stroke="white" stroke-width="5" stroke-miterlimit="10" stroke-linecap="round" stroke-linejoin="round"/>
<path d="M67.3203 2.85645C64.2638 5.28344 61.2073 7.71043 58.1508 10.1374" stroke="white" stroke-width="5" stroke-miterlimit="10" stroke-linecap="round" stroke-linejoin="round"/>
<path d="M31.8672 95.333C29.5032 101.759 28.095 108.539 27.7011 115.377" stroke="white" stroke-width="5" stroke-miterlimit="10" stroke-linecap="round" stroke-linejoin="round"/>
<path d="M2.99993 148.302C3.58321 155.291 5.01297 162.208 7.24609 168.853" stroke="white" stroke-width="5" stroke-miterlimit="10" stroke-linecap="round" stroke-linejoin="round"/>
</svg>
